<?xml version="1.0" encoding="utf-8"?>
<!-- Generator: Fusion 360, Shaper Origin Export Add-In, Version 1.5.0  -->
<svg enable-background="new 0 0 100 97.5" height="97.5cm" shaper:fusionaddin="version:1.5.0" version="1.1" viewBox="0 0 100 97.5" width="100cm" x="0cm" xml:space="preserve" xmlns="http://www.w3.org/2000/svg" xmlns:shaper="http://www.shapertools.com/namespaces/shaper" xmlns:xlink="http://www.w3.org/1999/xlink" y="0cm"><path d="M48,72 L29,60 71,60 52,72 A2.236068,2.236068 26.5650512 1,0 48,72z" fill="rgb(0,0,0)" shaper:cutDepth="0" shaper:pathType="exterior" transform="matrix(1,0,0,-1,0,97.5)" vector-effect="non-scaling-stroke" /><path d="M70,63 L68,64.2 68,68 66,68 66,65.4 64,66.6 64,68 62,68 62,67.8 59.1666667,69.5 70,69.5 70,63z" fill="rgb(0,0,0)" shaper:cutDepth="0" shaper:pathType="exterior" transform="matrix(1,0,0,-1,0,97.5)" vector-effect="non-scaling-stroke" /><path d="M68,64.2 L68,68 66,68 66,65.4 68,64.2z" fill="rgb(0,0,0)" shaper:cutDepth="0" shaper:pathType="exterior" transform="matrix(1,0,0,-1,0,97.5)" vector-effect="non-scaling-stroke" /><path d="M82,37.5 L18,37.5 18,57 82,57 82,37.5z" fill="rgb(0,0,0)" shaper:cutDepth="0" shaper:pathType="exterior" transform="matrix(1,0,0,-1,0,97.5)" vector-effect="non-scaling-stroke" /><path d="M85,34.5 L85,25 15,25 15,34.5 85,34.5z" fill="rgb(0,0,0)" shaper:cutDepth="0" shaper:pathType="exterior" transform="matrix(1,0,0,-1,0,97.5)" vector-effect="non-scaling-stroke" /><path d="M100,0 L0,0 A28.3333333,28.3333333 298.0724869 0,1 15,25 L85,25 A26.2797451,26.2797451 177.273689 0,1 100,-0z" fill="rgb(0,0,0)" shaper:cutDepth="0" shaper:pathType="exterior" transform="matrix(1,0,0,-1,0,97.5)" vector-effect="non-scaling-stroke" /><path d="M29,60 L71,60 75,60 82.5,60 85,62 86.8740851,59.6573936 83.5523432,57 82,57 18,57 16.4476568,57 13.1259149,59.6573936 15,62 17.5,60 25,60 29,60z" fill="rgb(0,0,0)" shaper:cutDepth="0" shaper:pathType="exterior" transform="matrix(1,0,0,-1,0,97.5)" vector-effect="non-scaling-stroke" /><path d="M87.5,37.5 L92.5,40 93.8416408,37.3167184 88.2082039,34.5 85,34.5 15,34.5 11.7917961,34.5 6.1583592,37.3167184 7.5,40 12.5,37.5 18,37.5 82,37.5 87.5,37.5z" fill="rgb(0,0,0)" shaper:cutDepth="0" shaper:pathType="exterior" transform="matrix(1,0,0,-1,0,97.5)" vector-effect="non-scaling-stroke" /><path d="M49,97.5 L51,97.5 51,94 50,95 49,94 49,97.5z" fill="rgb(0,0,0)" shaper:cutDepth="0" shaper:pathType="exterior" transform="matrix(1,0,0,-1,0,97.5)" vector-effect="non-scaling-stroke" /><path d="M40,85 L42,85 49,93 A1.118034,1.118034 153.4349488 1,1 51,93 L58,85 60,85 51,94 50,95 49,94 40,85z" fill="rgb(0,0,0)" shaper:cutDepth="0" shaper:pathType="exterior" transform="matrix(1,0,0,-1,0,97.5)" vector-effect="non-scaling-stroke" /><path d="M32,64.2 L32,68 34,68 34,65.4 32,64.2z" fill="rgb(0,0,0)" shaper:cutDepth="0" shaper:pathType="exterior" transform="matrix(1,0,0,-1,0,97.5)" vector-effect="non-scaling-stroke" /><path d="M64,66.6 L64,68 62,68 62,67.8 64,66.6z" fill="rgb(0,0,0)" shaper:cutDepth="0" shaper:pathType="exterior" transform="matrix(1,0,0,-1,0,97.5)" vector-effect="non-scaling-stroke" /><path d="M55,79 L57,79 57,75 55,75 55,79z" fill="rgb(0,0,0)" shaper:cutDepth="0" shaper:pathType="exterior" transform="matrix(1,0,0,-1,0,97.5)" vector-effect="non-scaling-stroke" /><path d="M47,79 L49,79 49,75 47,75 47,79z" fill="rgb(0,0,0)" shaper:cutDepth="0" shaper:pathType="exterior" transform="matrix(1,0,0,-1,0,97.5)" vector-effect="non-scaling-stroke" /><path d="M59,79 L61,79 61,75 59,75 59,79z" fill="rgb(0,0,0)" shaper:cutDepth="0" shaper:pathType="exterior" transform="matrix(1,0,0,-1,0,97.5)" vector-effect="non-scaling-stroke" /><path d="M45,61.5 L45,67.5 44,67.5 44,61.5 45,61.5z" fill="rgb(0,0,0)" shaper:cutDepth="0" shaper:pathType="exterior" transform="matrix(1,0,0,-1,0,97.5)" vector-effect="non-scaling-stroke" /><path d="M36,66.6 L36,68 38,68 38,67.8 36,66.6z" fill="rgb(0,0,0)" shaper:cutDepth="0" shaper:pathType="exterior" transform="matrix(1,0,0,-1,0,97.5)" vector-effect="non-scaling-stroke" /><path d="M38,67.8 L40.8333333,69.5 30,69.5 30,63 32,64.2 32,68 34,68 34,65.4 36,66.6 36,68 38,68 38,67.8z" fill="rgb(0,0,0)" shaper:cutDepth="0" shaper:pathType="exterior" transform="matrix(1,0,0,-1,0,97.5)" vector-effect="non-scaling-stroke" /><path d="M51,79 L53,79 53,75 51,75 51,79z" fill="rgb(0,0,0)" shaper:cutDepth="0" shaper:pathType="exterior" transform="matrix(1,0,0,-1,0,97.5)" vector-effect="non-scaling-stroke" /><path d="M49,61.5 L49,67.5 48,67.5 48,61.5 49,61.5z" fill="rgb(0,0,0)" shaper:cutDepth="0" shaper:pathType="exterior" transform="matrix(1,0,0,-1,0,97.5)" vector-effect="non-scaling-stroke" /><path d="M51,67.5 L52,67.5 52,61.5 51,61.5 51,67.5z" fill="rgb(0,0,0)" shaper:cutDepth="0" shaper:pathType="exterior" transform="matrix(1,0,0,-1,0,97.5)" vector-effect="non-scaling-stroke" /><path d="M47,61.5 L47,67.5 46,67.5 46,61.5 47,61.5z" fill="rgb(0,0,0)" shaper:cutDepth="0" shaper:pathType="exterior" transform="matrix(1,0,0,-1,0,97.5)" vector-effect="non-scaling-stroke" /><path d="M53,67.5 L54,67.5 54,61.5 53,61.5 53,67.5z" fill="rgb(0,0,0)" shaper:cutDepth="0" shaper:pathType="exterior" transform="matrix(1,0,0,-1,0,97.5)" vector-effect="non-scaling-stroke" /><path d="M55,67.5 L56,67.5 56,61.5 55,61.5 55,67.5z" fill="rgb(0,0,0)" shaper:cutDepth="0" shaper:pathType="exterior" transform="matrix(1,0,0,-1,0,97.5)" vector-effect="non-scaling-stroke" /><path d="M58,85 L51,93 A1.118034,1.118034 26.5650512 1,0 49,93 L42,85 58,85z" fill="rgb(0,0,0)" shaper:cutDepth="0" shaper:pathType="exterior" transform="matrix(1,0,0,-1,0,97.5)" vector-effect="non-scaling-stroke" /><path d="M37.5,72 L30,72 25,74 24.0715233,71.6788083 29.518544,69.5 30,69.5 40.8333333,69.5 45,72 37.5,72z" fill="rgb(0,0,0)" shaper:cutDepth="0" shaper:pathType="exterior" transform="matrix(1,0,0,-1,0,97.5)" vector-effect="non-scaling-stroke" /><path d="M55,72 L50,75 45,72 40.8333333,69.5 38,67.8 36,66.6 34,65.4 32,64.2 30,63 25,60 29,60 48,72 A2.236068,2.236068 153.4349488 1,1 52,72 L71,60 75,60 70,63 68,64.2 66,65.4 64,66.6 62,67.8 59.1666667,69.5 55,72z" fill="rgb(0,0,0)" shaper:cutDepth="0" shaper:pathType="exterior" transform="matrix(1,0,0,-1,0,97.5)" vector-effect="non-scaling-stroke" /><path d="M45,72 L50,75 55,72 62.5,72 62.5,80.5 37.5,80.5 37.5,72 45,72z" fill="rgb(0,0,0)" shaper:cutDepth="0" shaper:pathType="exterior" transform="matrix(1,0,0,-1,0,97.5)" vector-effect="non-scaling-stroke" /><path d="M62.5,80.5 L63.3666208,80.5 66.671258,81.8218549 65,86 62.5,85 60,85 58,85 42,85 40,85 37.5,85 35,86 33.328742,81.8218549 36.6333792,80.5 37.5,80.5 62.5,80.5z" fill="rgb(0,0,0)" shaper:cutDepth="0" shaper:pathType="exterior" transform="matrix(1,0,0,-1,0,97.5)" vector-effect="non-scaling-stroke" /><path d="M62.5,72 L55,72 59.1666667,69.5 70,69.5 70.481456,69.5 75.9284767,71.6788083 75,74 70,72 62.5,72z" fill="rgb(0,0,0)" shaper:cutDepth="0" shaper:pathType="exterior" transform="matrix(1,0,0,-1,0,97.5)" vector-effect="non-scaling-stroke" /><path d="M39,79 L41,79 41,75 39,75 39,79z" fill="rgb(0,0,0)" shaper:cutDepth="0" shaper:pathType="exterior" transform="matrix(1,0,0,-1,0,97.5)" vector-effect="non-scaling-stroke" /><path d="M43,79 L45,79 45,75 43,75 43,79z" fill="rgb(0,0,0)" shaper:cutDepth="0" shaper:pathType="exterior" transform="matrix(1,0,0,-1,0,97.5)" vector-effect="non-scaling-stroke" /><path d="M51,61.5 L51,67.5 52,67.5 52,61.5 51,61.5z" fill="rgb(255,255,255)" shaper:cutDepth="0" shaper:pathType="interior" stroke="rgb(0,0,0)" transform="matrix(1,0,0,-1,0,97.5)" vector-effect="non-scaling-stroke" /><path d="M47,67.5 L46,67.5 46,61.5 47,61.5 47,67.5z" fill="rgb(255,255,255)" shaper:cutDepth="0" shaper:pathType="interior" stroke="rgb(0,0,0)" transform="matrix(1,0,0,-1,0,97.5)" vector-effect="non-scaling-stroke" /><path d="M39,75 L39,79 41,79 41,75 39,75z" fill="rgb(255,255,255)" shaper:cutDepth="0" shaper:pathType="interior" stroke="rgb(0,0,0)" transform="matrix(1,0,0,-1,0,97.5)" vector-effect="non-scaling-stroke" /><path d="M43,75 L43,79 45,79 45,75 43,75z" fill="rgb(255,255,255)" shaper:cutDepth="0" shaper:pathType="interior" stroke="rgb(0,0,0)" transform="matrix(1,0,0,-1,0,97.5)" vector-effect="non-scaling-stroke" /><path d="M47,75 L47,79 49,79 49,75 47,75z" fill="rgb(255,255,255)" shaper:cutDepth="0" shaper:pathType="interior" stroke="rgb(0,0,0)" transform="matrix(1,0,0,-1,0,97.5)" vector-effect="non-scaling-stroke" /><path d="M51,75 L51,79 53,79 53,75 51,75z" fill="rgb(255,255,255)" shaper:cutDepth="0" shaper:pathType="interior" stroke="rgb(0,0,0)" transform="matrix(1,0,0,-1,0,97.5)" vector-effect="non-scaling-stroke" /><path d="M55,75 L55,79 57,79 57,75 55,75z" fill="rgb(255,255,255)" shaper:cutDepth="0" shaper:pathType="interior" stroke="rgb(0,0,0)" transform="matrix(1,0,0,-1,0,97.5)" vector-effect="non-scaling-stroke" /><path d="M59,75 L59,79 61,79 61,75 59,75z" fill="rgb(255,255,255)" shaper:cutDepth="0" shaper:pathType="interior" stroke="rgb(0,0,0)" transform="matrix(1,0,0,-1,0,97.5)" vector-effect="non-scaling-stroke" /><path d="M53,61.5 L53,67.5 54,67.5 54,61.5 53,61.5z" fill="rgb(255,255,255)" shaper:cutDepth="0" shaper:pathType="interior" stroke="rgb(0,0,0)" transform="matrix(1,0,0,-1,0,97.5)" vector-effect="non-scaling-stroke" /><path d="M45,67.5 L44,67.5 44,61.5 45,61.5 45,67.5z" fill="rgb(255,255,255)" shaper:cutDepth="0" shaper:pathType="interior" stroke="rgb(0,0,0)" transform="matrix(1,0,0,-1,0,97.5)" vector-effect="non-scaling-stroke" /><path d="M55,61.5 L55,67.5 56,67.5 56,61.5 55,61.5z" fill="rgb(255,255,255)" shaper:cutDepth="0" shaper:pathType="interior" stroke="rgb(0,0,0)" transform="matrix(1,0,0,-1,0,97.5)" vector-effect="non-scaling-stroke" /><path d="M49,67.5 L48,67.5 48,61.5 49,61.5 49,67.5z" fill="rgb(255,255,255)" shaper:cutDepth="0" shaper:pathType="interior" stroke="rgb(0,0,0)" transform="matrix(1,0,0,-1,0,97.5)" vector-effect="non-scaling-stroke" /></svg>