<?xml version="1.0" encoding="UTF-8" standalone="no"?>
<svg width="1600px" height="1340px" font-family="'GeoMathMono0069','ＭＳ ゴシック'" viewBox="0px 0px 1600px 1340px" version="1.1" xmlns="http://www.w3.org/2000/svg" xmlns:xlink="http://www.w3.org/1999/xlink">
<rect x="300" y="320" width="20" height="20" fill="#000000" />
<rect x="500" y="320" width="20" height="20" fill="#000000" />
<rect x="300" y="340" width="20" height="20" fill="#000000" />
<rect x="320" y="340" width="20" height="20" fill="#000000" />
<rect x="480" y="340" width="20" height="20" fill="#000000" />
<rect x="500" y="340" width="20" height="20" fill="#000000" />
<rect x="320" y="360" width="20" height="20" fill="#000000" />
<rect x="340" y="360" width="20" height="20" fill="#000000" />
<rect x="360" y="360" width="20" height="20" fill="#000000" />
<rect x="380" y="360" width="20" height="20" fill="#000000" />
<rect x="400" y="360" width="20" height="20" fill="#000000" />
<rect x="420" y="360" width="20" height="20" fill="#000000" />
<rect x="440" y="360" width="20" height="20" fill="#000000" />
<rect x="460" y="360" width="20" height="20" fill="#000000" />
<rect x="480" y="360" width="20" height="20" fill="#000000" />
<polygon points="300 380,300 400,280 400" fill="#000000" />
<rect x="300" y="380" width="20" height="20" fill="#000000" />
<rect x="320" y="380" width="20" height="20" fill="#000000" />
<rect x="340" y="380" width="20" height="20" fill="#000000" />
<rect x="360" y="380" width="20" height="20" fill="#000000" />
<rect x="380" y="380" width="20" height="20" fill="#000000" />
<rect x="400" y="380" width="20" height="20" fill="#000000" />
<rect x="420" y="380" width="20" height="20" fill="#000000" />
<rect x="440" y="380" width="20" height="20" fill="#000000" />
<rect x="460" y="380" width="20" height="20" fill="#000000" />
<rect x="480" y="380" width="20" height="20" fill="#000000" />
<rect x="500" y="380" width="20" height="20" fill="#000000" />
<polygon points="520 380,540 400,520 400" fill="#000000" />
<polygon points="280 400,280 420,260 420" fill="#000000" />
<rect x="280" y="400" width="20" height="20" fill="#000000" />
<rect x="300" y="400" width="20" height="20" fill="#000000" />
<rect x="320" y="400" width="20" height="20" fill="#000000" />
<rect x="340" y="400" width="20" height="20" fill="#000000" />
<rect x="360" y="400" width="20" height="20" fill="#000000" />
<rect x="380" y="400" width="20" height="20" fill="#000000" />
<rect x="400" y="400" width="20" height="20" fill="#000000" />
<rect x="420" y="400" width="20" height="20" fill="#000000" />
<rect x="440" y="400" width="20" height="20" fill="#000000" />
<rect x="460" y="400" width="20" height="20" fill="#000000" />
<rect x="480" y="400" width="20" height="20" fill="#000000" />
<rect x="500" y="400" width="20" height="20" fill="#000000" />
<rect x="520" y="400" width="20" height="20" fill="#000000" />
<polygon points="540 400,560 420,540 420" fill="#000000" />
<rect x="300" y="420" width="20" height="20" fill="#000000" />
<rect x="500" y="420" width="20" height="20" fill="#000000" />
<rect x="300" y="440" width="20" height="20" fill="#000000" />
<rect x="340" y="440" width="20" height="20" fill="#000000" />
<rect x="380" y="440" width="20" height="20" fill="#000000" />
<rect x="420" y="440" width="20" height="20" fill="#000000" />
<rect x="460" y="440" width="20" height="20" fill="#000000" />
<rect x="500" y="440" width="20" height="20" fill="#000000" />
<polygon points="280 460,280 480,260 480" fill="#000000" />
<rect x="280" y="460" width="20" height="20" fill="#000000" />
<rect x="300" y="460" width="20" height="20" fill="#000000" />
<rect x="400" y="460" width="20" height="20" fill="#000000" />
<rect x="500" y="460" width="20" height="20" fill="#000000" />
<rect x="520" y="460" width="20" height="20" fill="#000000" />
<polygon points="540 460,560 480,540 480" fill="#000000" />
<polygon points="260 480,260 500,240 500" fill="#000000" />
<rect x="260" y="480" width="20" height="20" fill="#000000" />
<rect x="280" y="480" width="20" height="20" fill="#000000" />
<rect x="300" y="480" width="20" height="20" fill="#000000" />
<rect x="320" y="480" width="20" height="20" fill="#000000" />
<rect x="340" y="480" width="20" height="20" fill="#000000" />
<rect x="360" y="480" width="20" height="20" fill="#000000" />
<rect x="380" y="480" width="20" height="20" fill="#000000" />
<rect x="400" y="480" width="20" height="20" fill="#000000" />
<rect x="420" y="480" width="20" height="20" fill="#000000" />
<rect x="440" y="480" width="20" height="20" fill="#000000" />
<rect x="460" y="480" width="20" height="20" fill="#000000" />
<rect x="480" y="480" width="20" height="20" fill="#000000" />
<rect x="500" y="480" width="20" height="20" fill="#000000" />
<rect x="520" y="480" width="20" height="20" fill="#000000" />
<rect x="540" y="480" width="20" height="20" fill="#000000" />
<polygon points="560 480,580 500,560 500" fill="#000000" />
<polygon points="240 500,240 520,220 520" fill="#000000" />
<rect x="240" y="500" width="20" height="20" fill="#000000" />
<rect x="260" y="500" width="20" height="20" fill="#000000" />
<rect x="280" y="500" width="20" height="20" fill="#000000" />
<rect x="300" y="500" width="20" height="20" fill="#000000" />
<rect x="320" y="500" width="20" height="20" fill="#000000" />
<rect x="340" y="500" width="20" height="20" fill="#000000" />
<rect x="460" y="500" width="20" height="20" fill="#000000" />
<rect x="480" y="500" width="20" height="20" fill="#000000" />
<rect x="500" y="500" width="20" height="20" fill="#000000" />
<rect x="520" y="500" width="20" height="20" fill="#000000" />
<rect x="540" y="500" width="20" height="20" fill="#000000" />
<rect x="560" y="500" width="20" height="20" fill="#000000" />
<polygon points="580 500,600 520,580 520" fill="#000000" />
<rect x="260" y="520" width="20" height="20" fill="#000000" />
<rect x="400" y="520" width="20" height="20" fill="#000000" />
<rect x="540" y="520" width="20" height="20" fill="#000000" />
<rect x="240" y="540" width="20" height="20" fill="#000000" />
<rect x="260" y="540" width="20" height="20" fill="#000000" />
<rect x="300" y="540" width="20" height="20" fill="#000000" />
<rect x="340" y="540" width="20" height="20" fill="#000000" />
<polygon points="400 540,400 560,380 560" fill="#000000" />
<rect x="400" y="540" width="20" height="20" fill="#000000" />
<polygon points="420 540,440 560,420 560" fill="#000000" />
<rect x="460" y="540" width="20" height="20" fill="#000000" />
<rect x="500" y="540" width="20" height="20" fill="#000000" />
<rect x="540" y="540" width="20" height="20" fill="#000000" />
<rect x="560" y="540" width="20" height="20" fill="#000000" />
<polygon points="240 560,240 580,220 580" fill="#000000" />
<rect x="240" y="560" width="20" height="20" fill="#000000" />
<rect x="260" y="560" width="20" height="20" fill="#000000" />
<polygon points="380 560,380 580,360 580" fill="#000000" />
<polygon points="380 560,400 560,380 580" fill="#000000" />
<polygon points="420 560,440 560,440 580" fill="#000000" />
<polygon points="440 560,460 580,440 580" fill="#000000" />
<rect x="540" y="560" width="20" height="20" fill="#000000" />
<rect x="560" y="560" width="20" height="20" fill="#000000" />
<polygon points="580 560,600 580,580 580" fill="#000000" />
<polygon points="220 580,220 600,200 600" fill="#000000" />
<rect x="220" y="580" width="20" height="20" fill="#000000" />
<rect x="240" y="580" width="20" height="20" fill="#000000" />
<rect x="260" y="580" width="20" height="20" fill="#000000" />
<rect x="280" y="580" width="20" height="20" fill="#000000" />
<rect x="300" y="580" width="20" height="20" fill="#000000" />
<rect x="320" y="580" width="20" height="20" fill="#000000" />
<rect x="340" y="580" width="20" height="20" fill="#000000" />
<polygon points="360 580,380 580,360 600" fill="#000000" />
<polygon points="440 580,460 580,460 600" fill="#000000" />
<rect x="460" y="580" width="20" height="20" fill="#000000" />
<rect x="480" y="580" width="20" height="20" fill="#000000" />
<rect x="500" y="580" width="20" height="20" fill="#000000" />
<rect x="520" y="580" width="20" height="20" fill="#000000" />
<rect x="540" y="580" width="20" height="20" fill="#000000" />
<rect x="560" y="580" width="20" height="20" fill="#000000" />
<rect x="580" y="580" width="20" height="20" fill="#000000" />
<polygon points="600 580,620 600,600 600" fill="#000000" />
<polygon points="200 600,200 620,180 620" fill="#000000" />
<rect x="200" y="600" width="20" height="20" fill="#000000" />
<rect x="220" y="600" width="20" height="20" fill="#000000" />
<rect x="240" y="600" width="20" height="20" fill="#000000" />
<rect x="260" y="600" width="20" height="20" fill="#000000" />
<rect x="280" y="600" width="20" height="20" fill="#000000" />
<rect x="300" y="600" width="20" height="20" fill="#000000" />
<rect x="320" y="600" width="20" height="20" fill="#000000" />
<polygon points="340 600,360 600,340 620" fill="#000000" />
<rect x="380" y="600" width="20" height="20" fill="#000000" />
<rect x="420" y="600" width="20" height="20" fill="#000000" />
<polygon points="460 600,480 600,480 620" fill="#000000" />
<rect x="480" y="600" width="20" height="20" fill="#000000" />
<rect x="500" y="600" width="20" height="20" fill="#000000" />
<rect x="520" y="600" width="20" height="20" fill="#000000" />
<rect x="540" y="600" width="20" height="20" fill="#000000" />
<rect x="560" y="600" width="20" height="20" fill="#000000" />
<rect x="580" y="600" width="20" height="20" fill="#000000" />
<rect x="600" y="600" width="20" height="20" fill="#000000" />
<polygon points="620 600,640 620,620 620" fill="#000000" />
<rect x="220" y="620" width="20" height="20" fill="#000000" />
<rect x="580" y="620" width="20" height="20" fill="#000000" />
<rect x="220" y="640" width="20" height="20" fill="#000000" />
<rect x="260" y="640" width="20" height="20" fill="#000000" />
<rect x="300" y="640" width="20" height="20" fill="#000000" />
<rect x="340" y="640" width="20" height="20" fill="#000000" />
<rect x="380" y="640" width="20" height="20" fill="#000000" />
<rect x="420" y="640" width="20" height="20" fill="#000000" />
<rect x="460" y="640" width="20" height="20" fill="#000000" />
<rect x="500" y="640" width="20" height="20" fill="#000000" />
<rect x="540" y="640" width="20" height="20" fill="#000000" />
<rect x="580" y="640" width="20" height="20" fill="#000000" />
<rect x="200" y="660" width="20" height="20" fill="#000000" />
<rect x="220" y="660" width="20" height="20" fill="#000000" />
<rect x="280" y="660" width="20" height="20" fill="#000000" />
<rect x="520" y="660" width="20" height="20" fill="#000000" />
<rect x="580" y="660" width="20" height="20" fill="#000000" />
<rect x="600" y="660" width="20" height="20" fill="#000000" />
<polygon points="200 680,200 700,180 700" fill="#000000" />
<rect x="200" y="680" width="20" height="20" fill="#000000" />
<rect x="220" y="680" width="20" height="20" fill="#000000" />
<rect x="260" y="680" width="20" height="20" fill="#000000" />
<rect x="280" y="680" width="20" height="20" fill="#000000" />
<rect x="300" y="680" width="20" height="20" fill="#000000" />
<rect x="500" y="680" width="20" height="20" fill="#000000" />
<rect x="520" y="680" width="20" height="20" fill="#000000" />
<rect x="540" y="680" width="20" height="20" fill="#000000" />
<rect x="580" y="680" width="20" height="20" fill="#000000" />
<rect x="600" y="680" width="20" height="20" fill="#000000" />
<polygon points="620 680,640 700,620 700" fill="#000000" />
<polygon points="180 700,180 720,160 720" fill="#000000" />
<rect x="180" y="700" width="20" height="20" fill="#000000" />
<rect x="200" y="700" width="20" height="20" fill="#000000" />
<rect x="220" y="700" width="20" height="20" fill="#000000" />
<rect x="240" y="700" width="20" height="20" fill="#000000" />
<rect x="260" y="700" width="20" height="20" fill="#000000" />
<rect x="280" y="700" width="20" height="20" fill="#000000" />
<rect x="300" y="700" width="20" height="20" fill="#000000" />
<rect x="320" y="700" width="20" height="20" fill="#000000" />
<rect x="340" y="700" width="20" height="20" fill="#000000" />
<rect x="360" y="700" width="20" height="20" fill="#000000" />
<rect x="380" y="700" width="20" height="20" fill="#000000" />
<rect x="400" y="700" width="20" height="20" fill="#000000" />
<rect x="420" y="700" width="20" height="20" fill="#000000" />
<rect x="440" y="700" width="20" height="20" fill="#000000" />
<rect x="460" y="700" width="20" height="20" fill="#000000" />
<rect x="480" y="700" width="20" height="20" fill="#000000" />
<rect x="500" y="700" width="20" height="20" fill="#000000" />
<rect x="520" y="700" width="20" height="20" fill="#000000" />
<rect x="540" y="700" width="20" height="20" fill="#000000" />
<rect x="560" y="700" width="20" height="20" fill="#000000" />
<rect x="580" y="700" width="20" height="20" fill="#000000" />
<rect x="600" y="700" width="20" height="20" fill="#000000" />
<rect x="620" y="700" width="20" height="20" fill="#000000" />
<polygon points="640 700,660 720,640 720" fill="#000000" />
<polygon points="160 720,160 740,140 740" fill="#000000" />
<rect x="160" y="720" width="20" height="20" fill="#000000" />
<rect x="180" y="720" width="20" height="20" fill="#000000" />
<rect x="200" y="720" width="20" height="20" fill="#000000" />
<rect x="220" y="720" width="20" height="20" fill="#000000" />
<rect x="240" y="720" width="20" height="20" fill="#000000" />
<rect x="260" y="720" width="20" height="20" fill="#000000" />
<rect x="280" y="720" width="20" height="20" fill="#000000" />
<rect x="300" y="720" width="20" height="20" fill="#000000" />
<rect x="320" y="720" width="20" height="20" fill="#000000" />
<rect x="340" y="720" width="20" height="20" fill="#000000" />
<rect x="360" y="720" width="20" height="20" fill="#000000" />
<rect x="380" y="720" width="20" height="20" fill="#000000" />
<rect x="400" y="720" width="20" height="20" fill="#000000" />
<rect x="420" y="720" width="20" height="20" fill="#000000" />
<rect x="440" y="720" width="20" height="20" fill="#000000" />
<rect x="460" y="720" width="20" height="20" fill="#000000" />
<rect x="480" y="720" width="20" height="20" fill="#000000" />
<rect x="500" y="720" width="20" height="20" fill="#000000" />
<rect x="520" y="720" width="20" height="20" fill="#000000" />
<rect x="540" y="720" width="20" height="20" fill="#000000" />
<rect x="560" y="720" width="20" height="20" fill="#000000" />
<rect x="580" y="720" width="20" height="20" fill="#000000" />
<rect x="600" y="720" width="20" height="20" fill="#000000" />
<rect x="620" y="720" width="20" height="20" fill="#000000" />
<rect x="640" y="720" width="20" height="20" fill="#000000" />
<polygon points="660 720,680 740,660 740" fill="#000000" />
<rect x="200" y="740" width="20" height="20" fill="#000000" />
<rect x="600" y="740" width="20" height="20" fill="#000000" />
<rect x="200" y="760" width="20" height="20" fill="#000000" />
<rect x="240" y="760" width="20" height="20" fill="#000000" />
<rect x="280" y="760" width="20" height="20" fill="#000000" />
<rect x="320" y="760" width="20" height="20" fill="#000000" />
<rect x="360" y="760" width="20" height="20" fill="#000000" />
<rect x="440" y="760" width="20" height="20" fill="#000000" />
<rect x="480" y="760" width="20" height="20" fill="#000000" />
<rect x="520" y="760" width="20" height="20" fill="#000000" />
<rect x="560" y="760" width="20" height="20" fill="#000000" />
<rect x="600" y="760" width="20" height="20" fill="#000000" />
<rect x="200" y="780" width="20" height="20" fill="#000000" />
<rect x="240" y="780" width="20" height="20" fill="#000000" />
<rect x="280" y="780" width="20" height="20" fill="#000000" />
<rect x="320" y="780" width="20" height="20" fill="#000000" />
<rect x="360" y="780" width="20" height="20" fill="#000000" />
<rect x="440" y="780" width="20" height="20" fill="#000000" />
<rect x="480" y="780" width="20" height="20" fill="#000000" />
<rect x="520" y="780" width="20" height="20" fill="#000000" />
<rect x="560" y="780" width="20" height="20" fill="#000000" />
<rect x="600" y="780" width="20" height="20" fill="#000000" />
<rect x="200" y="800" width="20" height="20" fill="#000000" />
<rect x="600" y="800" width="20" height="20" fill="#000000" />
<rect x="200" y="820" width="20" height="20" fill="#000000" />
<rect x="220" y="820" width="20" height="20" fill="#000000" />
<rect x="240" y="820" width="20" height="20" fill="#000000" />
<rect x="260" y="820" width="20" height="20" fill="#000000" />
<rect x="280" y="820" width="20" height="20" fill="#000000" />
<rect x="300" y="820" width="20" height="20" fill="#000000" />
<rect x="320" y="820" width="20" height="20" fill="#000000" />
<rect x="340" y="820" width="20" height="20" fill="#000000" />
<rect x="360" y="820" width="20" height="20" fill="#000000" />
<rect x="380" y="820" width="20" height="20" fill="#000000" />
<rect x="400" y="820" width="20" height="20" fill="#000000" />
<rect x="420" y="820" width="20" height="20" fill="#000000" />
<rect x="440" y="820" width="20" height="20" fill="#000000" />
<rect x="460" y="820" width="20" height="20" fill="#000000" />
<rect x="480" y="820" width="20" height="20" fill="#000000" />
<rect x="500" y="820" width="20" height="20" fill="#000000" />
<rect x="520" y="820" width="20" height="20" fill="#000000" />
<rect x="540" y="820" width="20" height="20" fill="#000000" />
<rect x="560" y="820" width="20" height="20" fill="#000000" />
<rect x="580" y="820" width="20" height="20" fill="#000000" />
<rect x="600" y="820" width="20" height="20" fill="#000000" />
<rect x="200" y="840" width="20" height="20" fill="#000000" />
<rect x="220" y="840" width="20" height="20" fill="#000000" />
<rect x="240" y="840" width="20" height="20" fill="#000000" />
<rect x="260" y="840" width="20" height="20" fill="#000000" />
<rect x="280" y="840" width="20" height="20" fill="#000000" />
<rect x="300" y="840" width="20" height="20" fill="#000000" />
<rect x="320" y="840" width="20" height="20" fill="#000000" />
<rect x="340" y="840" width="20" height="20" fill="#000000" />
<rect x="360" y="840" width="20" height="20" fill="#000000" />
<rect x="380" y="840" width="20" height="20" fill="#000000" />
<rect x="400" y="840" width="20" height="20" fill="#000000" />
<rect x="420" y="840" width="20" height="20" fill="#000000" />
<rect x="440" y="840" width="20" height="20" fill="#000000" />
<rect x="460" y="840" width="20" height="20" fill="#000000" />
<rect x="480" y="840" width="20" height="20" fill="#000000" />
<rect x="500" y="840" width="20" height="20" fill="#000000" />
<rect x="520" y="840" width="20" height="20" fill="#000000" />
<rect x="540" y="840" width="20" height="20" fill="#000000" />
<rect x="560" y="840" width="20" height="20" fill="#000000" />
<rect x="580" y="840" width="20" height="20" fill="#000000" />
<rect x="600" y="840" width="20" height="20" fill="#000000" />
<rect x="200" y="860" width="20" height="20" fill="#000000" />
<rect x="220" y="860" width="20" height="20" fill="#000000" />
<rect x="240" y="860" width="20" height="20" fill="#000000" />
<rect x="260" y="860" width="20" height="20" fill="#000000" />
<rect x="280" y="860" width="20" height="20" fill="#000000" />
<rect x="300" y="860" width="20" height="20" fill="#000000" />
<rect x="320" y="860" width="20" height="20" fill="#000000" />
<rect x="340" y="860" width="20" height="20" fill="#000000" />
<rect x="360" y="860" width="20" height="20" fill="#000000" />
<rect x="380" y="860" width="20" height="20" fill="#000000" />
<rect x="400" y="860" width="20" height="20" fill="#000000" />
<rect x="420" y="860" width="20" height="20" fill="#000000" />
<rect x="440" y="860" width="20" height="20" fill="#000000" />
<rect x="460" y="860" width="20" height="20" fill="#000000" />
<rect x="480" y="860" width="20" height="20" fill="#000000" />
<rect x="500" y="860" width="20" height="20" fill="#000000" />
<rect x="520" y="860" width="20" height="20" fill="#000000" />
<rect x="540" y="860" width="20" height="20" fill="#000000" />
<rect x="560" y="860" width="20" height="20" fill="#000000" />
<rect x="580" y="860" width="20" height="20" fill="#000000" />
<rect x="600" y="860" width="20" height="20" fill="#000000" />
<rect x="180" y="880" width="20" height="20" fill="#000000" />
<rect x="200" y="880" width="20" height="20" fill="#000000" />
<rect x="220" y="880" width="20" height="20" fill="#000000" />
<rect x="240" y="880" width="20" height="20" fill="#000000" />
<rect x="260" y="880" width="20" height="20" fill="#000000" />
<rect x="280" y="880" width="20" height="20" fill="#000000" />
<rect x="300" y="880" width="20" height="20" fill="#000000" />
<rect x="320" y="880" width="20" height="20" fill="#000000" />
<rect x="340" y="880" width="20" height="20" fill="#000000" />
<rect x="360" y="880" width="20" height="20" fill="#000000" />
<rect x="380" y="880" width="20" height="20" fill="#000000" />
<rect x="400" y="880" width="20" height="20" fill="#000000" />
<rect x="420" y="880" width="20" height="20" fill="#000000" />
<rect x="440" y="880" width="20" height="20" fill="#000000" />
<rect x="460" y="880" width="20" height="20" fill="#000000" />
<rect x="480" y="880" width="20" height="20" fill="#000000" />
<rect x="500" y="880" width="20" height="20" fill="#000000" />
<rect x="520" y="880" width="20" height="20" fill="#000000" />
<rect x="540" y="880" width="20" height="20" fill="#000000" />
<rect x="560" y="880" width="20" height="20" fill="#000000" />
<rect x="580" y="880" width="20" height="20" fill="#000000" />
<rect x="600" y="880" width="20" height="20" fill="#000000" />
<rect x="620" y="880" width="20" height="20" fill="#000000" />
<rect x="180" y="900" width="20" height="20" fill="#000000" />
<rect x="200" y="900" width="20" height="20" fill="#000000" />
<rect x="220" y="900" width="20" height="20" fill="#000000" />
<rect x="240" y="900" width="20" height="20" fill="#000000" />
<rect x="260" y="900" width="20" height="20" fill="#000000" />
<rect x="280" y="900" width="20" height="20" fill="#000000" />
<rect x="300" y="900" width="20" height="20" fill="#000000" />
<rect x="320" y="900" width="20" height="20" fill="#000000" />
<rect x="340" y="900" width="20" height="20" fill="#000000" />
<rect x="360" y="900" width="20" height="20" fill="#000000" />
<rect x="380" y="900" width="20" height="20" fill="#000000" />
<rect x="400" y="900" width="20" height="20" fill="#000000" />
<rect x="420" y="900" width="20" height="20" fill="#000000" />
<rect x="440" y="900" width="20" height="20" fill="#000000" />
<rect x="460" y="900" width="20" height="20" fill="#000000" />
<rect x="480" y="900" width="20" height="20" fill="#000000" />
<rect x="500" y="900" width="20" height="20" fill="#000000" />
<rect x="520" y="900" width="20" height="20" fill="#000000" />
<rect x="540" y="900" width="20" height="20" fill="#000000" />
<rect x="560" y="900" width="20" height="20" fill="#000000" />
<rect x="580" y="900" width="20" height="20" fill="#000000" />
<rect x="600" y="900" width="20" height="20" fill="#000000" />
<rect x="620" y="900" width="20" height="20" fill="#000000" />
<rect x="160" y="920" width="20" height="20" fill="#000000" />
<rect x="180" y="920" width="20" height="20" fill="#000000" />
<rect x="200" y="920" width="20" height="20" fill="#000000" />
<rect x="220" y="920" width="20" height="20" fill="#000000" />
<rect x="240" y="920" width="20" height="20" fill="#000000" />
<rect x="260" y="920" width="20" height="20" fill="#000000" />
<rect x="280" y="920" width="20" height="20" fill="#000000" />
<rect x="300" y="920" width="20" height="20" fill="#000000" />
<rect x="320" y="920" width="20" height="20" fill="#000000" />
<rect x="340" y="920" width="20" height="20" fill="#000000" />
<rect x="360" y="920" width="20" height="20" fill="#000000" />
<rect x="380" y="920" width="20" height="20" fill="#000000" />
<rect x="400" y="920" width="20" height="20" fill="#000000" />
<rect x="420" y="920" width="20" height="20" fill="#000000" />
<rect x="440" y="920" width="20" height="20" fill="#000000" />
<rect x="460" y="920" width="20" height="20" fill="#000000" />
<rect x="480" y="920" width="20" height="20" fill="#000000" />
<rect x="500" y="920" width="20" height="20" fill="#000000" />
<rect x="520" y="920" width="20" height="20" fill="#000000" />
<rect x="540" y="920" width="20" height="20" fill="#000000" />
<rect x="560" y="920" width="20" height="20" fill="#000000" />
<rect x="580" y="920" width="20" height="20" fill="#000000" />
<rect x="600" y="920" width="20" height="20" fill="#000000" />
<rect x="620" y="920" width="20" height="20" fill="#000000" />
<rect x="640" y="920" width="20" height="20" fill="#000000" />
<rect x="160" y="940" width="20" height="20" fill="#000000" />
<rect x="180" y="940" width="20" height="20" fill="#000000" />
<rect x="200" y="940" width="20" height="20" fill="#000000" />
<rect x="220" y="940" width="20" height="20" fill="#000000" />
<rect x="240" y="940" width="20" height="20" fill="#000000" />
<rect x="260" y="940" width="20" height="20" fill="#000000" />
<rect x="280" y="940" width="20" height="20" fill="#000000" />
<rect x="300" y="940" width="20" height="20" fill="#000000" />
<rect x="320" y="940" width="20" height="20" fill="#000000" />
<rect x="340" y="940" width="20" height="20" fill="#000000" />
<rect x="360" y="940" width="20" height="20" fill="#000000" />
<rect x="380" y="940" width="20" height="20" fill="#000000" />
<rect x="400" y="940" width="20" height="20" fill="#000000" />
<rect x="420" y="940" width="20" height="20" fill="#000000" />
<rect x="440" y="940" width="20" height="20" fill="#000000" />
<rect x="460" y="940" width="20" height="20" fill="#000000" />
<rect x="480" y="940" width="20" height="20" fill="#000000" />
<rect x="500" y="940" width="20" height="20" fill="#000000" />
<rect x="520" y="940" width="20" height="20" fill="#000000" />
<rect x="540" y="940" width="20" height="20" fill="#000000" />
<rect x="560" y="940" width="20" height="20" fill="#000000" />
<rect x="580" y="940" width="20" height="20" fill="#000000" />
<rect x="600" y="940" width="20" height="20" fill="#000000" />
<rect x="620" y="940" width="20" height="20" fill="#000000" />
<rect x="640" y="940" width="20" height="20" fill="#000000" />
<rect x="140" y="960" width="20" height="20" fill="#000000" />
<rect x="160" y="960" width="20" height="20" fill="#000000" />
<rect x="180" y="960" width="20" height="20" fill="#000000" />
<rect x="200" y="960" width="20" height="20" fill="#000000" />
<rect x="220" y="960" width="20" height="20" fill="#000000" />
<rect x="240" y="960" width="20" height="20" fill="#000000" />
<rect x="260" y="960" width="20" height="20" fill="#000000" />
<rect x="280" y="960" width="20" height="20" fill="#000000" />
<rect x="300" y="960" width="20" height="20" fill="#000000" />
<rect x="320" y="960" width="20" height="20" fill="#000000" />
<rect x="340" y="960" width="20" height="20" fill="#000000" />
<rect x="360" y="960" width="20" height="20" fill="#000000" />
<rect x="380" y="960" width="20" height="20" fill="#000000" />
<rect x="400" y="960" width="20" height="20" fill="#000000" />
<rect x="420" y="960" width="20" height="20" fill="#000000" />
<rect x="440" y="960" width="20" height="20" fill="#000000" />
<rect x="460" y="960" width="20" height="20" fill="#000000" />
<rect x="480" y="960" width="20" height="20" fill="#000000" />
<rect x="500" y="960" width="20" height="20" fill="#000000" />
<rect x="520" y="960" width="20" height="20" fill="#000000" />
<rect x="540" y="960" width="20" height="20" fill="#000000" />
<rect x="560" y="960" width="20" height="20" fill="#000000" />
<rect x="580" y="960" width="20" height="20" fill="#000000" />
<rect x="600" y="960" width="20" height="20" fill="#000000" />
<rect x="620" y="960" width="20" height="20" fill="#000000" />
<rect x="640" y="960" width="20" height="20" fill="#000000" />
<rect x="660" y="960" width="20" height="20" fill="#000000" />
<rect x="120" y="980" width="20" height="20" fill="#000000" />
<rect x="140" y="980" width="20" height="20" fill="#000000" />
<rect x="160" y="980" width="20" height="20" fill="#000000" />
<rect x="180" y="980" width="20" height="20" fill="#000000" />
<rect x="200" y="980" width="20" height="20" fill="#000000" />
<rect x="220" y="980" width="20" height="20" fill="#000000" />
<rect x="240" y="980" width="20" height="20" fill="#000000" />
<rect x="260" y="980" width="20" height="20" fill="#000000" />
<rect x="280" y="980" width="20" height="20" fill="#000000" />
<rect x="300" y="980" width="20" height="20" fill="#000000" />
<rect x="320" y="980" width="20" height="20" fill="#000000" />
<rect x="340" y="980" width="20" height="20" fill="#000000" />
<rect x="360" y="980" width="20" height="20" fill="#000000" />
<rect x="380" y="980" width="20" height="20" fill="#000000" />
<rect x="400" y="980" width="20" height="20" fill="#000000" />
<rect x="420" y="980" width="20" height="20" fill="#000000" />
<rect x="440" y="980" width="20" height="20" fill="#000000" />
<rect x="460" y="980" width="20" height="20" fill="#000000" />
<rect x="480" y="980" width="20" height="20" fill="#000000" />
<rect x="500" y="980" width="20" height="20" fill="#000000" />
<rect x="520" y="980" width="20" height="20" fill="#000000" />
<rect x="540" y="980" width="20" height="20" fill="#000000" />
<rect x="560" y="980" width="20" height="20" fill="#000000" />
<rect x="580" y="980" width="20" height="20" fill="#000000" />
<rect x="600" y="980" width="20" height="20" fill="#000000" />
<rect x="620" y="980" width="20" height="20" fill="#000000" />
<rect x="640" y="980" width="20" height="20" fill="#000000" />
<rect x="660" y="980" width="20" height="20" fill="#000000" />
<rect x="680" y="980" width="20" height="20" fill="#000000" />
</svg>